<svg xmlns="http://www.w3.org/2000/svg" xmlns:xlink="http://www.w3.org/1999/xlink" version="1.1" width="500px" height="500px" style="shape-rendering:geometricPrecision; text-rendering:geometricPrecision; image-rendering:optimizeQuality; fill-rule:evenodd; clip-rule:evenodd">
<g><path style="opacity:0.446" fill="#facf0e" d="M 222.5,109.5 C 214.162,108.208 205.829,108.208 197.5,109.5C 197.611,108.883 197.944,108.383 198.5,108C 205.833,107.333 213.167,107.333 220.5,108C 221.416,108.278 222.082,108.778 222.5,109.5 Z"/></g>
<g><path style="opacity:1" fill="#facf0e" d="M 222.5,109.5 C 223.959,109.433 225.292,109.766 226.5,110.5C 228.789,112.387 231.455,113.721 234.5,114.5C 236.404,114.738 237.738,115.738 238.5,117.5C 241.473,121.14 244.806,124.473 248.5,127.5C 248.66,129.153 249.326,130.486 250.5,131.5C 250.427,133.027 251.094,134.027 252.5,134.5C 252.658,138.841 253.658,142.841 255.5,146.5C 255.5,148.833 255.5,151.167 255.5,153.5C 253.837,155.438 253.171,157.772 253.5,160.5C 253.5,160.833 253.5,161.167 253.5,161.5C 251.787,162.635 251.12,164.302 251.5,166.5C 251.008,168.819 250.008,170.819 248.5,172.5C 246.738,173.262 245.738,174.596 245.5,176.5C 243.5,176.5 242.5,177.5 242.5,179.5C 240.973,179.427 239.973,180.094 239.5,181.5C 238.5,181.833 237.833,182.5 237.5,183.5C 235.973,183.427 234.973,184.094 234.5,185.5C 234.158,186.338 233.492,186.672 232.5,186.5C 230.62,186.229 229.287,186.896 228.5,188.5C 222.297,190.106 215.964,191.106 209.5,191.5C 203.324,191.632 197.491,190.298 192,187.5C 191.235,187.57 190.735,187.903 190.5,188.5C 190.167,188.5 189.833,188.5 189.5,188.5C 187.642,185.004 184.642,183.004 180.5,182.5C 180.027,181.094 179.027,180.427 177.5,180.5C 176.5,180.167 175.833,179.5 175.5,178.5C 175.269,175.937 173.935,174.27 171.5,173.5C 168.597,168.963 166.763,163.963 166,158.5C 165.148,157.429 164.315,156.429 163.5,155.5C 163.035,149.311 163.702,143.311 165.5,137.5C 167.834,135.824 168.834,133.491 168.5,130.5C 169.496,130.586 170.329,130.252 171,129.5C 171.655,127.372 172.489,125.372 173.5,123.5C 176.215,121.452 178.548,119.118 180.5,116.5C 180.833,116.5 181.167,116.5 181.5,116.5C 183.404,116.262 184.738,115.262 185.5,113.5C 187.38,113.771 188.713,113.104 189.5,111.5C 191.786,111.405 193.786,110.738 195.5,109.5C 196.167,109.5 196.833,109.5 197.5,109.5C 205.829,108.208 214.162,108.208 222.5,109.5 Z"/></g>
<g><path style="opacity:0.29" fill="#757d6b" d="M 195.5,109.5 C 193.786,110.738 191.786,111.405 189.5,111.5C 191.102,109.926 193.102,109.259 195.5,109.5 Z"/></g>
<g><path style="opacity:0.188" fill="#707e6c" d="M 189.5,111.5 C 188.713,113.104 187.38,113.771 185.5,113.5C 186.514,112.326 187.847,111.66 189.5,111.5 Z"/></g>
<g><path style="opacity:0.125" fill="#6e806c" d="M 226.5,110.5 C 229.754,110.794 232.421,112.127 234.5,114.5C 231.455,113.721 228.789,112.387 226.5,110.5 Z"/></g>
<g><path style="opacity:0.392" fill="#6e806b" d="M 185.5,113.5 C 184.738,115.262 183.404,116.262 181.5,116.5C 182.262,114.738 183.596,113.738 185.5,113.5 Z"/></g>
<g><path style="opacity:0.486" fill="#668974" d="M 238.5,117.5 C 242.877,119.877 246.21,123.21 248.5,127.5C 244.806,124.473 241.473,121.14 238.5,117.5 Z"/></g>
<g><path style="opacity:0.267" fill="#767663" d="M 180.5,116.5 C 178.548,119.118 176.215,121.452 173.5,123.5C 174.789,120.211 177.122,117.878 180.5,116.5 Z"/></g>
<g><path style="opacity:0.082" fill="#6e806b" d="M 173.5,123.5 C 172.489,125.372 171.655,127.372 171,129.5C 170.329,130.252 169.496,130.586 168.5,130.5C 168.831,127.169 170.497,124.836 173.5,123.5 Z"/></g>
<g><path style="opacity:0.153" fill="#757864" d="M 248.5,127.5 C 251.124,128.076 251.791,129.41 250.5,131.5C 249.326,130.486 248.66,129.153 248.5,127.5 Z"/></g>
<g><path style="opacity:0.067" fill="#757c68" d="M 250.5,131.5 C 251.906,131.973 252.573,132.973 252.5,134.5C 251.094,134.027 250.427,133.027 250.5,131.5 Z"/></g>
<g><path style="opacity:0.047" fill="#6e826e" d="M 168.5,130.5 C 168.834,133.491 167.834,135.824 165.5,137.5C 165.182,134.519 166.182,132.185 168.5,130.5 Z"/></g>
<g><path style="opacity:0.027" fill="#6b8b7b" d="M 252.5,134.5 C 254.692,138.098 255.692,142.098 255.5,146.5C 253.658,142.841 252.658,138.841 252.5,134.5 Z"/></g>
<g><path style="opacity:0.122" fill="#629182" d="M 329.5,146.5 C 328.003,147.306 326.336,147.972 324.5,148.5C 323.893,148.376 323.56,148.043 323.5,147.5C 325.265,146.539 327.265,146.205 329.5,146.5 Z"/></g>
<g><path style="opacity:1" fill="#facf0e" d="M 329.5,146.5 C 336.638,145.803 343.304,146.803 349.5,149.5C 351.181,151.008 353.181,152.008 355.5,152.5C 357.833,154.5 360.167,156.5 362.5,158.5C 362.427,160.027 363.094,161.027 364.5,161.5C 365.167,161.5 365.5,161.833 365.5,162.5C 365.66,164.153 366.326,165.486 367.5,166.5C 368.793,174.174 368.793,181.841 367.5,189.5C 365.645,195.356 361.979,199.689 356.5,202.5C 350.137,204.981 343.803,207.314 337.5,209.5C 332.405,209.779 327.405,209.445 322.5,208.5C 320.824,206.166 318.491,205.166 315.5,205.5C 313.034,204.702 311.034,203.369 309.5,201.5C 307.833,199.167 305.833,197.167 303.5,195.5C 303.573,193.973 302.906,192.973 301.5,192.5C 301.13,188.863 300.13,185.53 298.5,182.5C 298.181,177.637 298.514,172.97 299.5,168.5C 300.674,167.486 301.34,166.153 301.5,164.5C 302.401,163.71 303.068,162.71 303.5,161.5C 303.5,161.167 303.5,160.833 303.5,160.5C 307.352,158.328 310.685,155.328 313.5,151.5C 316.754,149.971 320.087,148.638 323.5,147.5C 323.56,148.043 323.893,148.376 324.5,148.5C 326.336,147.972 328.003,147.306 329.5,146.5 Z"/></g>
<g><path style="opacity:0.02" fill="#747663" d="M 349.5,149.5 C 352.089,149.461 354.089,150.461 355.5,152.5C 353.181,152.008 351.181,151.008 349.5,149.5 Z"/></g>
<g><path style="opacity:0.62" fill="#628c75" d="M 313.5,151.5 C 310.685,155.328 307.352,158.328 303.5,160.5C 306.185,156.817 309.518,153.817 313.5,151.5 Z"/></g>
<g><path style="opacity:0.016" fill="#6d8a7a" d="M 255.5,153.5 C 255.662,155.527 255.495,157.527 255,159.5C 254.617,160.056 254.117,160.389 253.5,160.5C 253.171,157.772 253.837,155.438 255.5,153.5 Z"/></g>
<g><path style="opacity:0.114" fill="#77745e" d="M 362.5,158.5 C 363.906,158.973 364.573,159.973 364.5,161.5C 363.094,161.027 362.427,160.027 362.5,158.5 Z"/></g>
<g><path style="opacity:0.51" fill="#5a957f" d="M 163.5,155.5 C 164.315,156.429 165.148,157.429 166,158.5C 166.763,163.963 168.597,168.963 171.5,173.5C 166.743,168.536 164.076,162.536 163.5,155.5 Z"/></g>
<g><path style="opacity:0.153" fill="#787461" d="M 303.5,161.5 C 303.068,162.71 302.401,163.71 301.5,164.5C 301.285,162.821 301.952,161.821 303.5,161.5 Z"/></g>
<g><path style="opacity:0.588" fill="#658873" d="M 253.5,161.5 C 253.88,163.698 253.213,165.365 251.5,166.5C 251.12,164.302 251.787,162.635 253.5,161.5 Z"/></g>
<g><path style="opacity:0.212" fill="#777561" d="M 365.5,162.5 C 367.104,163.287 367.771,164.62 367.5,166.5C 366.326,165.486 365.66,164.153 365.5,162.5 Z"/></g>
<g><path style="opacity:0.067" fill="#737f6a" d="M 301.5,164.5 C 301.34,166.153 300.674,167.486 299.5,168.5C 299.229,166.62 299.896,165.287 301.5,164.5 Z"/></g>
<g><path style="opacity:0.056" fill="#747662" d="M 248.5,172.5 C 248.532,174.619 247.532,175.952 245.5,176.5C 245.738,174.596 246.738,173.262 248.5,172.5 Z"/></g>
<g><path style="opacity:0.447" fill="#668871" d="M 171.5,173.5 C 173.935,174.27 175.269,175.937 175.5,178.5C 173.413,177.415 172.08,175.749 171.5,173.5 Z"/></g>
<g><path style="opacity:0.249" fill="#6e8271" d="M 367.5,166.5 C 369.646,169.912 370.646,173.745 370.5,178C 370.646,182.255 369.646,186.088 367.5,189.5C 368.793,181.841 368.793,174.174 367.5,166.5 Z"/></g>
<g><path style="opacity:0.035" fill="#727963" d="M 245.5,176.5 C 244.833,177.833 243.833,178.833 242.5,179.5C 242.5,177.5 243.5,176.5 245.5,176.5 Z"/></g>
<g><path style="opacity:0.38" fill="#638a74" d="M 177.5,180.5 C 179.027,180.427 180.027,181.094 180.5,182.5C 178.973,182.573 177.973,181.906 177.5,180.5 Z"/></g>
<g><path style="opacity:0.016" fill="#727a64" d="M 242.5,179.5 C 242.027,180.906 241.027,181.573 239.5,181.5C 239.973,180.094 240.973,179.427 242.5,179.5 Z"/></g>
<g><path style="opacity:0.142" fill="#757460" d="M 239.5,181.5 C 239.5,182.833 238.833,183.5 237.5,183.5C 237.833,182.5 238.5,181.833 239.5,181.5 Z"/></g>
<g><path style="opacity:0.937" fill="#509f87" d="M 180.5,182.5 C 184.642,183.004 187.642,185.004 189.5,188.5C 185.946,187.231 182.946,185.231 180.5,182.5 Z"/></g>
<g><path style="opacity:0.071" fill="#747764" d="M 237.5,183.5 C 237.179,185.048 236.179,185.715 234.5,185.5C 234.973,184.094 235.973,183.427 237.5,183.5 Z"/></g>
<g><path style="opacity:0.796" fill="#648d77" d="M 298.5,182.5 C 300.13,185.53 301.13,188.863 301.5,192.5C 299.288,189.679 298.288,186.345 298.5,182.5 Z"/></g>
<g><path style="opacity:0.059" fill="#658c7a" d="M 232.5,186.5 C 231.486,187.674 230.153,188.34 228.5,188.5C 229.287,186.896 230.62,186.229 232.5,186.5 Z"/></g>
<g><path style="opacity:0.086" fill="#539c8b" d="M 228.5,188.5 C 222.722,191.857 216.388,193.19 209.5,192.5C 202.612,193.19 196.278,191.857 190.5,188.5C 190.735,187.903 191.235,187.57 192,187.5C 197.491,190.298 203.324,191.632 209.5,191.5C 215.964,191.106 222.297,190.106 228.5,188.5 Z"/></g>
<g><path style="opacity:0.059" fill="#767360" d="M 301.5,192.5 C 302.906,192.973 303.573,193.973 303.5,195.5C 302.094,195.027 301.427,194.027 301.5,192.5 Z"/></g>
<g><path style="opacity:0.152" fill="#669180" d="M 207.5,196.5 C 201.134,196.408 194.467,196.575 187.5,197C 183.806,197.253 180.472,198.42 177.5,200.5C 176.583,199.873 175.583,199.539 174.5,199.5C 178.205,197.736 182.205,196.569 186.5,196C 193.679,195.179 200.679,195.345 207.5,196.5 Z"/></g>
<g><path style="opacity:1" fill="#facf0e" d="M 207.5,196.5 C 208.167,196.5 208.833,196.5 209.5,196.5C 210.312,197.993 211.645,198.66 213.5,198.5C 214.726,198.48 215.726,198.147 216.5,197.5C 218.5,198.167 220.5,198.833 222.5,199.5C 222.577,200.75 223.244,201.583 224.5,202C 227.993,203.749 231.66,204.915 235.5,205.5C 236.167,205.833 236.833,206.167 237.5,206.5C 238.048,208.532 239.381,209.532 241.5,209.5C 242.5,210.167 243.5,210.833 244.5,211.5C 246.812,215.812 250.145,219.145 254.5,221.5C 255.864,223.191 257.197,224.858 258.5,226.5C 262.01,228.184 265.843,229.184 270,229.5C 271.07,229.472 271.903,229.139 272.5,228.5C 276.5,229.167 280.5,229.833 284.5,230.5C 287.171,231.298 290.004,231.965 293,232.5C 293.765,232.43 294.265,232.097 294.5,231.5C 294.5,231.167 294.5,230.833 294.5,230.5C 297.784,228.883 300.451,226.55 302.5,223.5C 302.842,222.662 303.508,222.328 304.5,222.5C 306.919,221.636 308.919,220.303 310.5,218.5C 328.98,212.905 347.314,213.238 365.5,219.5C 365.804,220.15 366.137,220.817 366.5,221.5C 369.107,222.318 371.774,222.818 374.5,223C 375.869,224.719 376.869,226.552 377.5,228.5C 377.81,230.144 378.81,231.144 380.5,231.5C 383.396,233.845 385.396,236.845 386.5,240.5C 386.738,242.404 387.738,243.738 389.5,244.5C 390.674,245.514 391.34,246.847 391.5,248.5C 391.335,252.579 392.669,255.912 395.5,258.5C 395.5,258.833 395.5,259.167 395.5,259.5C 395.998,262.487 396.498,265.487 397,268.5C 397.383,269.056 397.883,269.389 398.5,269.5C 398.608,274.71 399.275,279.71 400.5,284.5C 400.5,288.167 400.5,291.833 400.5,295.5C 399.475,298.974 398.808,302.64 398.5,306.5C 398.5,306.833 398.5,307.167 398.5,307.5C 396.952,307.821 396.285,308.821 396.5,310.5C 395.415,312.587 393.749,313.92 391.5,314.5C 389.302,314.12 387.635,314.787 386.5,316.5C 385.833,316.5 385.167,316.5 384.5,316.5C 382.691,315.709 380.691,315.709 378.5,316.5C 378.5,326.5 378.5,336.5 378.5,346.5C 379.497,349.328 379.497,351.995 378.5,354.5C 376.102,354.259 374.102,354.926 372.5,356.5C 367.992,358.126 363.325,359.126 358.5,359.5C 355.017,359.327 352.017,360.327 349.5,362.5C 346.63,363.634 343.63,364.3 340.5,364.5C 335.666,365.1 330.833,365.766 326,366.5C 324.014,366.569 322.514,367.235 321.5,368.5C 320.391,368.557 319.391,368.89 318.5,369.5C 318.083,368.876 317.416,368.543 316.5,368.5C 311.676,369.06 307.01,369.727 302.5,370.5C 294.833,370.5 287.167,370.5 279.5,370.5C 279.389,369.883 279.056,369.383 278.5,369C 276.19,368.503 273.857,368.337 271.5,368.5C 271.167,368.5 270.833,368.5 270.5,368.5C 269.866,367.053 268.699,366.387 267,366.5C 261.516,365.65 256.016,364.983 250.5,364.5C 247.37,364.3 244.37,363.634 241.5,362.5C 240.01,360.72 238.01,360.054 235.5,360.5C 234.041,360.567 232.708,360.234 231.5,359.5C 230.01,357.72 228.01,357.054 225.5,357.5C 225.167,357.5 224.833,357.5 224.5,357.5C 222.68,355.552 220.346,354.552 217.5,354.5C 217.83,347.8 217.497,341.134 216.5,334.5C 215.893,334.624 215.56,334.957 215.5,335.5C 180.24,334.507 144.906,334.174 109.5,334.5C 108.486,333.326 107.153,332.66 105.5,332.5C 104.327,328.821 102.661,325.488 100.5,322.5C 99.1302,313.423 99.4635,304.423 101.5,295.5C 102.738,293.786 103.405,291.786 103.5,289.5C 103.5,289.167 103.5,288.833 103.5,288.5C 104.768,286.095 105.435,283.428 105.5,280.5C 106.931,279.22 107.598,277.553 107.5,275.5C 109.858,272.757 111.191,269.423 111.5,265.5C 112.117,265.611 112.617,265.944 113,266.5C 113.44,264.134 113.94,261.801 114.5,259.5C 115.048,256.916 116.715,255.916 119.5,256.5C 119.765,260.853 120.265,265.187 121,269.5C 121.278,270.416 121.778,271.082 122.5,271.5C 123.461,273.265 123.795,275.265 123.5,277.5C 123.796,279.403 124.463,281.07 125.5,282.5C 125.054,285.01 125.72,287.01 127.5,288.5C 127.031,291.393 128.031,293.393 130.5,294.5C 131.11,295.391 131.443,296.391 131.5,297.5C 131.427,299.027 132.094,300.027 133.5,300.5C 134.833,303.833 137.167,306.167 140.5,307.5C 141.167,307.833 141.833,308.167 142.5,308.5C 143.607,310.969 145.607,311.969 148.5,311.5C 150.515,312.924 152.848,313.59 155.5,313.5C 174.89,315.039 194.223,314.705 213.5,312.5C 215.598,313.484 217.598,313.151 219.5,311.5C 220.268,310.737 220.768,309.737 221,308.5C 221.667,295.167 221.667,281.833 221,268.5C 220.722,267.584 220.222,266.918 219.5,266.5C 217.201,264.231 214.534,263.898 211.5,265.5C 205.833,264.167 200.167,264.167 194.5,265.5C 190.712,264.877 187.045,263.877 183.5,262.5C 181.51,259.512 179.177,256.845 176.5,254.5C 176.5,254.167 176.5,253.833 176.5,253.5C 175.743,245.982 173.743,238.982 170.5,232.5C 169.055,229.063 168.055,225.397 167.5,221.5C 167.975,218.918 167.308,216.918 165.5,215.5C 165.5,215.167 165.5,214.833 165.5,214.5C 165.56,211.979 164.894,209.646 163.5,207.5C 163.846,206.151 164.179,204.817 164.5,203.5C 167.393,203.969 169.393,202.969 170.5,200.5C 171.708,199.766 173.041,199.433 174.5,199.5C 175.583,199.539 176.583,199.873 177.5,200.5C 180.472,198.42 183.806,197.253 187.5,197C 194.467,196.575 201.134,196.408 207.5,196.5 Z M 227.5,231.5 C 229.435,232.15 231.435,232.483 233.5,232.5C 234.167,232.5 234.833,232.5 235.5,232.5C 240.386,233.721 245.386,234.388 250.5,234.5C 251.609,234.557 252.609,234.89 253.5,235.5C 258.773,236.601 264.106,237.267 269.5,237.5C 276.385,238.884 283.385,239.55 290.5,239.5C 291.568,240.434 292.901,240.768 294.5,240.5C 294.485,281.041 294.485,321.374 294.5,361.5C 292.5,361.5 290.5,361.5 288.5,361.5C 287.167,361.5 285.833,361.5 284.5,361.5C 282.735,360.539 280.735,360.205 278.5,360.5C 277.5,360.5 276.5,360.5 275.5,360.5C 273.393,359.532 271.059,359.198 268.5,359.5C 266.621,358.659 264.621,358.325 262.5,358.5C 259.632,357.36 256.632,356.36 253.5,355.5C 249.803,354.992 246.136,354.326 242.5,353.5C 241.833,353.5 241.167,353.5 240.5,353.5C 240.389,352.883 240.056,352.383 239.5,352C 236.148,351.162 232.815,350.329 229.5,349.5C 228.292,348.766 226.959,348.433 225.5,348.5C 225.5,337.167 225.5,325.833 225.5,314.5C 228.877,314.932 231.877,314.265 234.5,312.5C 238.363,311.306 241.363,308.973 243.5,305.5C 245.446,304.965 246.446,303.632 246.5,301.5C 247.674,300.486 248.34,299.153 248.5,297.5C 249.833,291.5 249.833,285.5 248.5,279.5C 248.771,277.62 248.104,276.287 246.5,275.5C 246.461,274.417 246.127,273.417 245.5,272.5C 243.167,270.833 241.167,268.833 239.5,266.5C 237.757,264.962 235.757,263.962 233.5,263.5C 231.485,262.076 229.152,261.41 226.5,261.5C 225.341,251.342 225.175,241.008 226,230.5C 226.383,231.056 226.883,231.389 227.5,231.5 Z M 375.5,274.5 C 375.833,274.5 376.167,274.5 376.5,274.5C 378.529,276.858 380.529,279.192 382.5,281.5C 383.392,286.438 383.726,291.438 383.5,296.5C 382.89,297.391 382.557,298.391 382.5,299.5C 381.094,299.973 380.427,300.973 380.5,302.5C 377.899,305.478 374.566,307.478 370.5,308.5C 369.501,319.814 369.168,331.147 369.5,342.5C 368.698,343.952 368.198,345.618 368,347.5C 366.698,348.085 365.531,348.751 364.5,349.5C 361.933,349.721 359.599,350.388 357.5,351.5C 354.772,351.171 352.438,351.837 350.5,353.5C 348.379,353.325 346.379,353.659 344.5,354.5C 341.37,354.7 338.37,355.366 335.5,356.5C 334.833,356.5 334.167,356.5 333.5,356.5C 331.597,356.796 329.93,357.463 328.5,358.5C 323.47,358.98 318.47,359.647 313.5,360.5C 311.379,360.325 309.379,360.659 307.5,361.5C 306.5,361.5 305.5,361.5 304.5,361.5C 304.5,323.5 304.5,285.5 304.5,247.5C 304.5,245.167 304.5,242.833 304.5,240.5C 311.315,241.726 317.982,241.393 324.5,239.5C 331.951,239.602 339.285,238.935 346.5,237.5C 351.444,237.246 356.111,236.246 360.5,234.5C 362.292,234.634 363.958,234.301 365.5,233.5C 366.496,233.586 367.329,233.252 368,232.5C 368.5,246.163 368.667,259.829 368.5,273.5C 370.95,273.298 373.283,273.631 375.5,274.5 Z"/></g>
<g><path style="opacity:0.718" fill="#5d9a86" d="M 209.5,196.5 C 211.861,196.674 214.194,197.007 216.5,197.5C 215.726,198.147 214.726,198.48 213.5,198.5C 211.645,198.66 210.312,197.993 209.5,196.5 Z"/></g>
<g><path style="opacity:0.012" fill="#75735e" d="M 303.5,195.5 C 305.833,197.167 307.833,199.167 309.5,201.5C 306.455,200.455 304.455,198.455 303.5,195.5 Z"/></g>
<g><path style="opacity:0.847" fill="#599b82" d="M 222.5,199.5 C 227.262,200.716 231.595,202.716 235.5,205.5C 231.66,204.915 227.993,203.749 224.5,202C 223.244,201.583 222.577,200.75 222.5,199.5 Z"/></g>
<g><path style="opacity:0.816" fill="#60927b" d="M 170.5,200.5 C 169.393,202.969 167.393,203.969 164.5,203.5C 166.181,201.992 168.181,200.992 170.5,200.5 Z"/></g>
<g><path style="opacity:0.82" fill="#61907a" d="M 315.5,205.5 C 318.491,205.166 320.824,206.166 322.5,208.5C 319.759,208.293 317.426,207.293 315.5,205.5 Z"/></g>
<g><path style="opacity:0.773" fill="#549d86" d="M 356.5,202.5 C 351.243,207.277 344.91,209.61 337.5,209.5C 343.803,207.314 350.137,204.981 356.5,202.5 Z"/></g>
<g><path style="opacity:0.91" fill="#648d76" d="M 237.5,206.5 C 239.632,206.554 240.965,207.554 241.5,209.5C 239.381,209.532 238.048,208.532 237.5,206.5 Z"/></g>
<g><path style="opacity:0.965" fill="#60957d" d="M 164.5,203.5 C 164.179,204.817 163.846,206.151 163.5,207.5C 164.894,209.646 165.56,211.979 165.5,214.5C 162.79,211.4 161.457,207.733 161.5,203.5C 162.5,203.5 163.5,203.5 164.5,203.5 Z"/></g>
<g><path style="opacity:1" fill="#facf0e" d="M 158.5,216.5 C 158.723,220.162 159.723,223.495 161.5,226.5C 163.211,236.499 165.878,246.165 169.5,255.5C 169.402,257.553 170.069,259.22 171.5,260.5C 173.347,265.012 176.68,267.679 181.5,268.5C 182.609,268.557 183.609,268.89 184.5,269.5C 185.221,271.382 186.221,271.715 187.5,270.5C 188.5,270.5 189.5,270.5 190.5,270.5C 190.918,271.222 191.584,271.722 192.5,272C 199.158,272.5 205.825,272.666 212.5,272.5C 212.5,283.5 212.5,294.5 212.5,305.5C 208.922,305.549 205.589,306.215 202.5,307.5C 201.5,307.5 200.5,307.5 199.5,307.5C 187.226,307.484 174.893,307.484 162.5,307.5C 160.265,307.795 158.265,307.461 156.5,306.5C 154.401,305.388 152.067,304.721 149.5,304.5C 149.167,304.5 148.833,304.5 148.5,304.5C 147.205,303.512 145.872,302.512 144.5,301.5C 143.5,299.833 142.167,298.5 140.5,297.5C 136.376,290.109 133.042,282.443 130.5,274.5C 130.5,274.167 130.5,273.833 130.5,273.5C 127.826,261.288 126.326,248.955 126,236.5C 128.333,234.469 130.167,232.135 131.5,229.5C 137.491,223.543 143.491,217.543 149.5,211.5C 151.003,210.318 152.67,209.818 154.5,210C 155.733,212.314 157.067,214.481 158.5,216.5 Z"/></g>
<g><path style="opacity:0.032" fill="#748371" d="M 344.5,212.5 C 339.5,213.833 334.5,213.833 329.5,212.5C 334.5,211.167 339.5,211.167 344.5,212.5 Z"/></g>
<g><path style="opacity:0.122" fill="#777864" d="M 158.5,216.5 C 157.067,214.481 155.733,212.314 154.5,210C 152.67,209.818 151.003,210.318 149.5,211.5C 151.03,208.979 153.364,207.979 156.5,208.5C 157.167,211.167 157.833,213.833 158.5,216.5 Z"/></g>
<g><path style="opacity:0.176" fill="#5f9178" d="M 244.5,211.5 C 248.215,214.548 251.548,217.881 254.5,221.5C 250.145,219.145 246.812,215.812 244.5,211.5 Z"/></g>
<g><path style="opacity:0.981" fill="#facf0e" d="M 329.5,212.5 C 334.5,213.833 339.5,213.833 344.5,212.5C 352.159,213.157 359.159,215.491 365.5,219.5C 347.314,213.238 328.98,212.905 310.5,218.5C 316.207,215.009 322.541,213.009 329.5,212.5 Z"/></g>
<g><path style="opacity:0.118" fill="#757a66" d="M 149.5,211.5 C 143.491,217.543 137.491,223.543 131.5,229.5C 134.15,225.408 136.984,221.408 140,217.5C 142.86,214.766 146.027,212.766 149.5,211.5 Z"/></g>
<g><path style="opacity:0.706" fill="#63917b" d="M 165.5,215.5 C 167.308,216.918 167.975,218.918 167.5,221.5C 166.262,219.786 165.595,217.786 165.5,215.5 Z"/></g>
<g><path style="opacity:0.863" fill="#668e77" d="M 310.5,218.5 C 308.919,220.303 306.919,221.636 304.5,222.5C 305.634,219.966 307.634,218.633 310.5,218.5 Z"/></g>
<g><path style="opacity:0.671" fill="#61927c" d="M 365.5,219.5 C 367.017,219.511 368.184,220.177 369,221.5C 374.879,219.866 377.712,222.199 377.5,228.5C 376.869,226.552 375.869,224.719 374.5,223C 371.774,222.818 369.107,222.318 366.5,221.5C 366.137,220.817 365.804,220.15 365.5,219.5 Z"/></g>
<g><path style="opacity:0.345" fill="#717f6c" d="M 158.5,216.5 C 160.41,219.452 161.41,222.786 161.5,226.5C 159.723,223.495 158.723,220.162 158.5,216.5 Z"/></g>
<g><path style="opacity:0.506" fill="#6f816b" d="M 302.5,223.5 C 300.451,226.55 297.784,228.883 294.5,230.5C 296.564,227.433 299.231,225.1 302.5,223.5 Z"/></g>
<g><path style="opacity:0.455" fill="#6a8e7f" d="M 258.5,226.5 C 263.202,226.95 267.868,227.617 272.5,228.5C 271.903,229.139 271.07,229.472 270,229.5C 265.843,229.184 262.01,228.184 258.5,226.5 Z"/></g>
<g><path style="opacity:0.016" fill="#757965" d="M 377.5,228.5 C 379.19,228.856 380.19,229.856 380.5,231.5C 378.81,231.144 377.81,230.144 377.5,228.5 Z"/></g>
<g><path style="opacity:0.443" fill="#708676" d="M 227.5,231.5 C 228.097,230.861 228.93,230.528 230,230.5C 231.699,230.387 232.866,231.053 233.5,232.5C 231.435,232.483 229.435,232.15 227.5,231.5 Z"/></g>
<g><path style="opacity:0.118" fill="#639585" d="M 284.5,230.5 C 287.902,230.342 291.236,230.676 294.5,231.5C 294.265,232.097 293.765,232.43 293,232.5C 290.004,231.965 287.171,231.298 284.5,230.5 Z"/></g>
<g><path style="opacity:0.952" fill="#51a28b" d="M 235.5,232.5 C 240.711,231.11 245.711,231.777 250.5,234.5C 245.386,234.388 240.386,233.721 235.5,232.5 Z"/></g>
<g><path style="opacity:0.016" fill="#609587" d="M 253.5,235.5 C 253.917,234.876 254.584,234.543 255.5,234.5C 260.376,235.14 265.042,236.14 269.5,237.5C 264.106,237.267 258.773,236.601 253.5,235.5 Z"/></g>
<g><path style="opacity:0.004" fill="#6a8e7e" d="M 360.5,234.5 C 356.111,236.246 351.444,237.246 346.5,237.5C 350.889,235.754 355.556,234.754 360.5,234.5 Z"/></g>
<g><path style="opacity:0.261" fill="#629688" d="M 304.5,240.5 C 310.979,239.509 317.646,239.176 324.5,239.5C 317.982,241.393 311.315,241.726 304.5,240.5 Z"/></g>
<g><path style="opacity:0.314" fill="#6b856f" d="M 386.5,240.5 C 388.262,241.262 389.262,242.596 389.5,244.5C 387.738,243.738 386.738,242.404 386.5,240.5 Z"/></g>
<g><path style="opacity:0.463" fill="#6e8776" d="M 131.5,229.5 C 130.167,232.135 128.333,234.469 126,236.5C 126.326,248.955 127.826,261.288 130.5,273.5C 129.883,273.389 129.383,273.056 129,272.5C 128.472,268.301 127.639,264.301 126.5,260.5C 124.954,252.232 124.454,243.898 125,235.5C 126.529,232.741 128.695,230.741 131.5,229.5 Z"/></g>
<g><path style="opacity:0.01" fill="#6e8573" d="M 161.5,226.5 C 164.924,235.853 167.591,245.519 169.5,255.5C 165.878,246.165 163.211,236.499 161.5,226.5 Z"/></g>
<g><path style="opacity:0.467" fill="#668d78" d="M 170.5,232.5 C 173.743,238.982 175.743,245.982 176.5,253.5C 174.71,249.723 173.21,245.723 172,241.5C 171.047,238.568 170.547,235.568 170.5,232.5 Z"/></g>
<g><path style="opacity:0.877" fill="#facf0e" d="M 295.5,239.5 C 296.499,280.663 296.832,321.997 296.5,363.5C 293.627,363.198 290.961,362.531 288.5,361.5C 290.5,361.5 292.5,361.5 294.5,361.5C 295.5,321.573 295.833,280.906 295.5,239.5 Z"/></g>
<g><path style="opacity:0.414" fill="#59977f" d="M 176.5,254.5 C 179.177,256.845 181.51,259.512 183.5,262.5C 179.91,260.885 177.576,258.219 176.5,254.5 Z"/></g>
<g><path style="opacity:0.996" fill="#549d85" d="M 391.5,248.5 C 393.063,251.66 394.729,254.826 396.5,258C 396.272,258.399 395.938,258.565 395.5,258.5C 392.669,255.912 391.335,252.579 391.5,248.5 Z"/></g>
<g><path style="opacity:0.063" fill="#797460" d="M 169.5,255.5 C 170.931,256.78 171.598,258.447 171.5,260.5C 170.069,259.22 169.402,257.553 169.5,255.5 Z"/></g>
<g><path style="opacity:0.004" fill="#7a6d56" d="M 126.5,260.5 C 125.833,261.167 125.833,261.167 126.5,260.5 Z"/></g>
<g><path style="opacity:0.394" fill="#678f7e" d="M 375.5,274.5 C 373.283,273.631 370.95,273.298 368.5,273.5C 368.667,259.829 368.5,246.163 368,232.5C 367.329,233.252 366.496,233.586 365.5,233.5C 366.183,231.824 367.517,231.157 369.5,231.5C 369.689,245.171 370.022,258.838 370.5,272.5C 372.781,272.077 374.448,272.744 375.5,274.5 Z"/></g>
<g><path style="opacity:0.008" fill="#728574" d="M 119.5,256.5 C 121.765,256.441 122.098,257.274 120.5,259C 121.546,263.11 122.213,267.277 122.5,271.5C 121.778,271.082 121.278,270.416 121,269.5C 120.265,265.187 119.765,260.853 119.5,256.5 Z"/></g>
<g><path style="opacity:0.388" fill="#737c68" d="M 171.5,260.5 C 174.569,263.577 177.903,266.244 181.5,268.5C 176.68,267.679 173.347,265.012 171.5,260.5 Z"/></g>
<g><path style="opacity:0.314" fill="#718675" d="M 226.5,261.5 C 229.152,261.41 231.485,262.076 233.5,263.5C 230.612,264.01 228.279,263.344 226.5,261.5 Z"/></g>
<g><path style="opacity:0.992" fill="#5f977e" d="M 114.5,259.5 C 113.94,261.801 113.44,264.134 113,266.5C 112.617,265.944 112.117,265.611 111.5,265.5C 111.755,263.033 112.755,261.033 114.5,259.5 Z"/></g>
<g><path style="opacity:0.012" fill="#6c8e7f" d="M 194.5,265.5 C 200.167,264.167 205.833,264.167 211.5,265.5C 205.825,266.768 200.158,266.768 194.5,265.5 Z"/></g>
<g><path style="opacity:0.902" fill="#5e9581" d="M 395.5,259.5 C 396.117,259.611 396.617,259.944 397,260.5C 397.696,263.478 398.196,266.478 398.5,269.5C 397.883,269.389 397.383,269.056 397,268.5C 396.498,265.487 395.998,262.487 395.5,259.5 Z"/></g>
<g><path style="opacity:0.843" fill="#62917a" d="M 111.5,265.5 C 111.191,269.423 109.858,272.757 107.5,275.5C 108.263,271.863 109.597,268.53 111.5,265.5 Z"/></g>
<g><path style="opacity:0.486" fill="#6d8878" d="M 219.5,266.5 C 220.222,266.918 220.722,267.584 221,268.5C 221.667,281.833 221.667,295.167 221,308.5C 220.768,309.737 220.268,310.737 219.5,311.5C 219.5,296.5 219.5,281.5 219.5,266.5 Z"/></g>
<g><path style="opacity:0.412" fill="#6c816d" d="M 184.5,269.5 C 185.791,269.263 186.791,269.596 187.5,270.5C 186.221,271.715 185.221,271.382 184.5,269.5 Z"/></g>
<g><path style="opacity:0.043" fill="#6c8979" d="M 398.5,269.5 C 399.268,270.263 399.768,271.263 400,272.5C 400.499,276.486 400.666,280.486 400.5,284.5C 399.275,279.71 398.608,274.71 398.5,269.5 Z"/></g>
<g><path style="opacity:0.071" fill="#facf0e" d="M 190.5,270.5 C 198.124,271.398 205.791,271.731 213.5,271.5C 213.5,283.167 213.5,294.833 213.5,306.5C 209.881,307.244 206.215,307.577 202.5,307.5C 205.589,306.215 208.922,305.549 212.5,305.5C 212.5,294.5 212.5,283.5 212.5,272.5C 205.825,272.666 199.158,272.5 192.5,272C 191.584,271.722 190.918,271.222 190.5,270.5 Z"/></g>
<g><path style="opacity:0.02" fill="#787a67" d="M 107.5,275.5 C 107.598,277.553 106.931,279.22 105.5,280.5C 105.402,278.447 106.069,276.78 107.5,275.5 Z"/></g>
<g><path style="opacity:1" fill="#facf0e" d="M 372.5,276.5 C 372.973,277.906 373.973,278.573 375.5,278.5C 376.08,280.749 377.413,282.415 379.5,283.5C 379.5,283.833 379.5,284.167 379.5,284.5C 379.249,289.507 378.916,294.507 378.5,299.5C 376.519,301.144 374.519,302.81 372.5,304.5C 372.167,304.5 371.833,304.5 371.5,304.5C 369.265,304.205 367.265,304.539 365.5,305.5C 364.167,304.833 362.833,304.167 361.5,303.5C 360.214,300.883 358.547,298.55 356.5,296.5C 356.5,296.167 356.5,295.833 356.5,295.5C 356.5,292.167 356.5,288.833 356.5,285.5C 356.263,284.209 356.596,283.209 357.5,282.5C 361.682,277.891 366.682,275.891 372.5,276.5 Z"/></g>
<g><path style="opacity:0.063" fill="#6c7c6a" d="M 372.5,276.5 C 374.027,276.427 375.027,277.094 375.5,278.5C 373.973,278.573 372.973,277.906 372.5,276.5 Z"/></g>
<g><path style="opacity:0.098" fill="#767c6a" d="M 246.5,275.5 C 248.104,276.287 248.771,277.62 248.5,279.5C 247.326,278.486 246.66,277.153 246.5,275.5 Z"/></g>
<g><path style="opacity:0.208" fill="#5c947b" d="M 376.5,274.5 C 380.113,275.363 382.113,277.697 382.5,281.5C 380.529,279.192 378.529,276.858 376.5,274.5 Z"/></g>
<g><path style="opacity:0.012" fill="#777f6d" d="M 123.5,277.5 C 125.213,278.635 125.88,280.302 125.5,282.5C 124.463,281.07 123.796,279.403 123.5,277.5 Z"/></g>
<g><path style="opacity:0.341" fill="#6d7e6c" d="M 372.5,276.5 C 366.682,275.891 361.682,277.891 357.5,282.5C 358.614,279.225 360.947,277.058 364.5,276C 367.367,275.199 370.034,275.366 372.5,276.5 Z"/></g>
<g><path style="opacity:0.127" fill="#787d6a" d="M 105.5,280.5 C 105.435,283.428 104.768,286.095 103.5,288.5C 103.294,285.505 103.96,282.838 105.5,280.5 Z"/></g>
<g><path style="opacity:0.259" fill="#747b67" d="M 130.5,274.5 C 133.042,282.443 136.376,290.109 140.5,297.5C 139.5,296.833 138.5,296.167 137.5,295.5C 133.782,289.012 131.448,282.012 130.5,274.5 Z"/></g>
<g><path style="opacity:0.184" fill="#6d7b68" d="M 375.5,278.5 C 377.893,279.353 379.226,281.019 379.5,283.5C 377.413,282.415 376.08,280.749 375.5,278.5 Z"/></g>
<g><path style="opacity:0.737" fill="#688c76" d="M 125.5,282.5 C 126.738,284.214 127.405,286.214 127.5,288.5C 125.72,287.01 125.054,285.01 125.5,282.5 Z"/></g>
<g><path style="opacity:0.351" fill="#6c8473" d="M 356.5,285.5 C 356.5,288.833 356.5,292.167 356.5,295.5C 355.883,295.389 355.383,295.056 355,294.5C 354.333,291.833 354.333,289.167 355,286.5C 355.383,285.944 355.883,285.611 356.5,285.5 Z"/></g>
<g><path style="opacity:0.578" fill="#5e9180" d="M 379.5,284.5 C 380.794,286.048 381.461,288.048 381.5,290.5C 381.977,294.14 380.977,297.14 378.5,299.5C 378.916,294.507 379.249,289.507 379.5,284.5 Z"/></g>
<g><path style="opacity:0.31" fill="#72806d" d="M 382.5,281.5 C 383.117,281.611 383.617,281.944 384,282.5C 386.015,287.408 385.848,292.075 383.5,296.5C 383.726,291.438 383.392,286.438 382.5,281.5 Z"/></g>
<g><path style="opacity:0.322" fill="#777d6c" d="M 103.5,289.5 C 103.405,291.786 102.738,293.786 101.5,295.5C 101.259,293.102 101.926,291.102 103.5,289.5 Z"/></g>
<g><path style="opacity:0.859" fill="#639079" d="M 127.5,288.5 C 128.87,290.25 129.87,292.25 130.5,294.5C 128.031,293.393 127.031,291.393 127.5,288.5 Z"/></g>
<g><path style="opacity:0.004" fill="#74735e" d="M 137.5,295.5 C 136.833,296.167 136.833,296.167 137.5,295.5 Z"/></g>
<g><path style="opacity:0.035" fill="#facf0e" d="M 304.5,247.5 C 304.5,285.5 304.5,323.5 304.5,361.5C 305.5,361.5 306.5,361.5 307.5,361.5C 307.5,361.833 307.5,362.167 307.5,362.5C 305.856,362.714 304.356,362.38 303,361.5C 303.067,323.341 303.567,285.341 304.5,247.5 Z"/></g>
<g><path style="opacity:0.239" fill="#768473" d="M 290.5,239.5 C 292.167,239.5 293.833,239.5 295.5,239.5C 295.833,280.906 295.5,321.573 294.5,361.5C 294.485,321.374 294.485,281.041 294.5,240.5C 292.901,240.768 291.568,240.434 290.5,239.5 Z"/></g>
<g><path style="opacity:0.545" fill="#6a8871" d="M 131.5,297.5 C 132.906,297.973 133.573,298.973 133.5,300.5C 132.094,300.027 131.427,299.027 131.5,297.5 Z"/></g>
<g><path style="opacity:0.031" fill="#787460" d="M 140.5,297.5 C 142.167,298.5 143.5,299.833 144.5,301.5C 142.167,301.167 140.833,299.833 140.5,297.5 Z"/></g>
<g><path style="opacity:0.235" fill="#6f7965" d="M 356.5,296.5 C 358.547,298.55 360.214,300.883 361.5,303.5C 357.929,302.649 356.263,300.316 356.5,296.5 Z"/></g>
<g><path style="opacity:0.004" fill="#7a7866" d="M 248.5,297.5 C 248.34,299.153 247.674,300.486 246.5,301.5C 246.229,299.62 246.896,298.287 248.5,297.5 Z"/></g>
<g><path style="opacity:0.029" fill="#6e7865" d="M 378.5,299.5 C 377.757,302.57 375.757,304.236 372.5,304.5C 374.519,302.81 376.519,301.144 378.5,299.5 Z"/></g>
<g><path style="opacity:0.584" fill="#6e846d" d="M 133.5,300.5 C 136.167,302.5 138.5,304.833 140.5,307.5C 137.167,306.167 134.833,303.833 133.5,300.5 Z"/></g>
<g><path style="opacity:0.153" fill="#7d735f" d="M 382.5,299.5 C 382.573,301.027 381.906,302.027 380.5,302.5C 380.427,300.973 381.094,299.973 382.5,299.5 Z"/></g>
<g><path style="opacity:0.012" fill="#787662" d="M 144.5,301.5 C 145.872,302.512 147.205,303.512 148.5,304.5C 146.027,304.912 144.694,303.912 144.5,301.5 Z"/></g>
<g><path style="opacity:0.514" fill="#688c74" d="M 246.5,301.5 C 246.446,303.632 245.446,304.965 243.5,305.5C 243.799,303.545 244.799,302.211 246.5,301.5 Z"/></g>
<g><path style="opacity:0.02" fill="#6f8575" d="M 400.5,295.5 C 400.665,298.85 400.498,302.183 400,305.5C 399.617,306.056 399.117,306.389 398.5,306.5C 398.808,302.64 399.475,298.974 400.5,295.5 Z"/></g>
<g><path style="opacity:0.237" fill="#6d8777" d="M 149.5,304.5 C 152.067,304.721 154.401,305.388 156.5,306.5C 154.473,306.662 152.473,306.495 150.5,306C 149.944,305.617 149.611,305.117 149.5,304.5 Z"/></g>
<g><path style="opacity:0.318" fill="#6d7e6c" d="M 371.5,304.5 C 370.866,305.947 369.699,306.613 368,306.5C 366.93,306.472 366.097,306.139 365.5,305.5C 367.265,304.539 369.265,304.205 371.5,304.5 Z"/></g>
<g><path style="opacity:0.278" fill="#facf0e" d="M 199.5,307.5 C 187.167,308.833 174.833,308.833 162.5,307.5C 174.893,307.484 187.226,307.484 199.5,307.5 Z"/></g>
<g><path style="opacity:0.02" fill="#71816d" d="M 398.5,307.5 C 398.5,308.167 398.5,308.833 398.5,309.5C 397.833,309.833 397.167,310.167 396.5,310.5C 396.285,308.821 396.952,307.821 398.5,307.5 Z"/></g>
<g><path style="opacity:0.463" fill="#668b75" d="M 142.5,308.5 C 144.544,309.508 146.544,310.508 148.5,311.5C 145.607,311.969 143.607,310.969 142.5,308.5 Z"/></g>
<g><path style="opacity:0.004" fill="#78705a" d="M 398.5,309.5 C 399.833,310.167 399.833,310.167 398.5,309.5 Z"/></g>
<g><path style="opacity:0.263" fill="#738472" d="M 148.5,311.5 C 151.228,311.171 153.562,311.837 155.5,313.5C 152.848,313.59 150.515,312.924 148.5,311.5 Z"/></g>
<g><path style="opacity:0.353" fill="#728574" d="M 219.5,311.5 C 217.598,313.151 215.598,313.484 213.5,312.5C 215.379,311.659 217.379,311.325 219.5,311.5 Z"/></g>
<g><path style="opacity:0.957" fill="#facf0e" d="M 234.5,312.5 C 231.877,314.265 228.877,314.932 225.5,314.5C 227.988,312.612 230.988,311.945 234.5,312.5 Z"/></g>
<g><path style="opacity:0.004" fill="#738474" d="M 391.5,314.5 C 390.22,315.931 388.553,316.598 386.5,316.5C 387.635,314.787 389.302,314.12 391.5,314.5 Z"/></g>
<g><path style="opacity:0.984" fill="#5f947c" d="M 100.5,322.5 C 102.661,325.488 104.327,328.821 105.5,332.5C 102.259,330.017 100.592,326.684 100.5,322.5 Z"/></g>
<g><path style="opacity:0.079" fill="#7e7b68" d="M 384.5,316.5 C 382.958,317.301 381.292,317.634 379.5,317.5C 379.827,327.348 379.494,337.014 378.5,346.5C 378.5,336.5 378.5,326.5 378.5,316.5C 380.691,315.709 382.691,315.709 384.5,316.5 Z"/></g>
<g><path style="opacity:0.122" fill="#71816d" d="M 105.5,332.5 C 107.153,332.66 108.486,333.326 109.5,334.5C 107.62,334.771 106.287,334.104 105.5,332.5 Z"/></g>
<g><path style="opacity:0.075" fill="#728271" d="M 217.5,354.5 C 215.544,348.588 214.877,342.255 215.5,335.5C 215.56,334.957 215.893,334.624 216.5,334.5C 217.497,341.134 217.83,347.8 217.5,354.5 Z"/></g>
<g><path style="opacity:0.29" fill="#728270" d="M 369.5,342.5 C 371.452,347.254 369.786,349.587 364.5,349.5C 365.531,348.751 366.698,348.085 368,347.5C 368.198,345.618 368.698,343.952 369.5,342.5 Z"/></g>
<g><path style="opacity:0.486" fill="#66907c" d="M 229.5,349.5 C 232.815,350.329 236.148,351.162 239.5,352C 240.056,352.383 240.389,352.883 240.5,353.5C 237.185,352.671 233.852,351.838 230.5,351C 229.944,350.617 229.611,350.117 229.5,349.5 Z"/></g>
<g><path style="opacity:0.596" fill="#5b9582" d="M 364.5,349.5 C 362.562,351.163 360.228,351.829 357.5,351.5C 359.599,350.388 361.933,349.721 364.5,349.5 Z"/></g>
<g><path style="opacity:0.322" fill="#6f8978" d="M 357.5,351.5 C 355.401,352.612 353.067,353.279 350.5,353.5C 352.438,351.837 354.772,351.171 357.5,351.5 Z"/></g>
<g><path style="opacity:0.016" fill="#6d8a79" d="M 217.5,354.5 C 220.346,354.552 222.68,355.552 224.5,357.5C 221.843,357.065 219.509,356.065 217.5,354.5 Z"/></g>
<g><path style="opacity:0.098" fill="#6d8978" d="M 344.5,354.5 C 342.051,355.791 339.384,356.791 336.5,357.5C 335.893,357.376 335.56,357.043 335.5,356.5C 338.37,355.366 341.37,354.7 344.5,354.5 Z"/></g>
<g><path style="opacity:0.016" fill="#6f8776" d="M 378.5,354.5 C 376.786,355.738 374.786,356.405 372.5,356.5C 374.102,354.926 376.102,354.259 378.5,354.5 Z"/></g>
<g><path style="opacity:0.996" fill="#facf0e" d="M 242.5,353.5 C 246.136,354.326 249.803,354.992 253.5,355.5C 253.5,356.167 253.5,356.833 253.5,357.5C 249.292,357.323 245.626,355.99 242.5,353.5 Z"/></g>
<g><path style="opacity:0.71" fill="#66907b" d="M 225.5,357.5 C 228.01,357.054 230.01,357.72 231.5,359.5C 229.214,359.405 227.214,358.738 225.5,357.5 Z"/></g>
<g><path style="opacity:0.031" fill="#74816f" d="M 253.5,355.5 C 256.632,356.36 259.632,357.36 262.5,358.5C 259.482,358.296 256.482,357.963 253.5,357.5C 253.5,356.833 253.5,356.167 253.5,355.5 Z"/></g>
<g><path style="opacity:0.333" fill="#718676" d="M 333.5,356.5 C 332.448,358.256 330.781,358.923 328.5,358.5C 329.93,357.463 331.597,356.796 333.5,356.5 Z"/></g>
<g><path style="opacity:0.933" fill="#facf0e" d="M 358.5,359.5 C 355.916,361.472 352.916,362.472 349.5,362.5C 352.017,360.327 355.017,359.327 358.5,359.5 Z"/></g>
<g><path style="opacity:0.761" fill="#5d9681" d="M 235.5,360.5 C 238.01,360.054 240.01,360.72 241.5,362.5C 239.214,362.405 237.214,361.738 235.5,360.5 Z"/></g>
<g><path style="opacity:0.518" fill="#facf0e" d="M 268.5,359.5 C 271.059,359.198 273.393,359.532 275.5,360.5C 272.988,361.867 270.655,361.534 268.5,359.5 Z"/></g>
<g><path style="opacity:0.353" fill="#718371" d="M 278.5,360.5 C 280.735,360.205 282.735,360.539 284.5,361.5C 282.32,362.794 280.32,362.461 278.5,360.5 Z"/></g>
<g><path style="opacity:0.325" fill="#728170" d="M 313.5,360.5 C 312.01,362.28 310.01,362.946 307.5,362.5C 307.5,362.167 307.5,361.833 307.5,361.5C 309.379,360.659 311.379,360.325 313.5,360.5 Z"/></g>
<g><path style="opacity:0.945" fill="#facf0e" d="M 250.5,364.5 C 256.016,364.983 261.516,365.65 267,366.5C 268.699,366.387 269.866,367.053 270.5,368.5C 263.532,368.04 256.866,366.707 250.5,364.5 Z"/></g>
<g><path style="opacity:0.937" fill="#facf0e" d="M 340.5,364.5 C 334.45,366.578 328.116,367.911 321.5,368.5C 322.514,367.235 324.014,366.569 326,366.5C 330.833,365.766 335.666,365.1 340.5,364.5 Z"/></g>
<g><path style="opacity:0.035" fill="#6a8e7f" d="M 271.5,368.5 C 273.857,368.337 276.19,368.503 278.5,369C 279.056,369.383 279.389,369.883 279.5,370.5C 276.447,370.889 273.78,370.223 271.5,368.5 Z"/></g>
<g><path style="opacity:0.039" fill="#facf0e" d="M 318.5,369.5 C 313.26,370.449 307.927,370.782 302.5,370.5C 307.01,369.727 311.676,369.06 316.5,368.5C 317.416,368.543 318.083,368.876 318.5,369.5 Z"/></g>
</svg>